<?xml version="1.0" encoding="UTF-8" standalone="no"?>
<!DOCTYPE svg PUBLIC "-//W3C//DTD SVG 1.1//EN" "http://www.w3.org/Graphics/SVG/1.1/DTD/svg11.dtd">
<svg width="100%" height="100%" viewBox="0 0 2048 2048" version="1.1" xmlns="http://www.w3.org/2000/svg" xmlns:xlink="http://www.w3.org/1999/xlink" xml:space="preserve" style="fill-rule:evenodd;clip-rule:evenodd;stroke-linejoin:round;stroke-miterlimit:1.41421;">
    <rect id="Cold-Version" x="0" y="0" width="2048" height="2048" style="fill:none;"/>
    <clipPath id="_clip1">
        <rect id="Cold-Version1" x="0" y="0" width="2048" height="2048"/>
    </clipPath>
    <g clip-path="url(#_clip1)">
        <g id="Octopus" transform="matrix(1,0,0,1,-2.93631,-351.64)">
            <g>
                <g id="Back-Curve" transform="matrix(0.989557,0,0,1,10.6939,0)">
                    <path d="M1335.32,1265.5C1352.4,1281.87 1416.57,1302.59 1464.27,1269.51C1516.89,1233.02 1477.16,1160.59 1451.27,1112.66C1421.77,1058.08 1395.21,988.729 1399.44,941.379C1407.98,845.84 1474.94,802.615 1580.14,778.242C1589.08,776.172 1604.78,779.729 1605.95,792.009C1606.7,799.882 1598.44,811.417 1589.77,814.963C1531.38,838.845 1489.72,876.158 1487.94,906.565C1485.63,946.074 1504.93,989.237 1544.14,1035.76C1595,1096.12 1579.65,1299.95 1585.13,1440.81L1365.54,1547.09L1024,1346.19L1024,1179.05L1335.32,1265.5Z" style="fill:rgb(40,66,98);"/>
                </g>
                <g id="Back-Curve1" transform="matrix(-0.989557,0,0,1,2037.31,0)">
                    <path d="M1335.32,1265.5C1352.4,1281.87 1416.57,1302.59 1464.27,1269.51C1516.89,1233.02 1477.16,1160.59 1451.27,1112.66C1421.77,1058.08 1395.21,988.729 1399.44,941.379C1407.98,845.84 1474.94,802.615 1580.14,778.242C1589.08,776.172 1604.78,779.729 1605.95,792.009C1606.7,799.882 1598.44,811.417 1589.77,814.963C1531.38,838.845 1489.72,876.158 1487.94,906.565C1485.63,946.074 1504.93,989.237 1544.14,1035.76C1595,1096.12 1579.65,1299.95 1585.13,1440.81L1365.54,1547.09L1024,1346.19L1024,1179.05L1335.32,1265.5Z" style="fill:rgb(40,66,98);"/>
                </g>
            </g>
            <path d="M1024.08,402.739L1024.18,402.734C1209.87,418.322 1365.38,628.203 1373.64,922.624C1374.96,969.615 1342.54,1052.87 1308.61,1100.46C1340.34,1135.1 1356.53,1170.83 1356.89,1206.67C1357.12,1229.12 1355.77,1247.34 1344.76,1268.76C1332.03,1293.53 1320.92,1315.92 1324.01,1334.58C1335.27,1402.49 1378.31,1448.43 1443.87,1429.47C1491.53,1415.68 1523.06,1365.85 1518.7,1150.63C1517.76,1104.52 1532.01,1057.02 1552.46,1023.87C1598.31,949.526 1681.63,925.478 1793.59,941.354C1804.75,942.935 1815.89,954.14 1816,965.46C1816.09,974.72 1803.66,986.381 1793.23,987.047C1719.06,991.786 1652.88,1007.58 1639.22,1059.53C1628.13,1101.71 1629.29,1132.83 1665.97,1283.31C1677.22,1329.46 1681.05,1370.39 1679.22,1408.99C1672.72,1545.86 1547.62,1644.87 1386.27,1645.27C1258.69,1645.59 1138,1576.07 1063.79,1446.24C1055.79,1447.04 1041.71,1449.54 1024,1449.79C1004.37,1450.07 992.658,1446.52 984.212,1446.24C909.996,1576.07 789.309,1645.59 661.731,1645.27C500.382,1644.87 375.281,1545.86 368.785,1408.99C366.953,1370.39 370.781,1329.46 382.032,1283.31C418.71,1132.83 419.868,1101.71 408.778,1059.53C395.118,1007.58 328.944,991.786 254.77,987.047C244.343,986.381 231.913,974.72 232,965.46C232.107,954.14 243.254,942.935 254.408,941.354C366.374,925.478 449.692,949.526 495.543,1023.87C515.988,1057.02 530.238,1104.52 529.304,1150.63C524.944,1365.85 556.473,1415.68 604.134,1429.47C669.69,1448.43 712.728,1402.49 723.986,1334.58C727.079,1315.92 715.975,1293.53 703.244,1268.76C692.231,1247.34 690.882,1229.12 691.108,1206.67C691.469,1170.83 707.659,1135.1 739.394,1100.46C705.46,1052.87 673.036,969.615 674.356,922.624C682.622,628.203 838.396,418.328 1024.08,402.739Z" style="fill:rgb(83,129,184);"/>
            <g id="Eyes">
                <g transform="matrix(-1.31194,0,0,1.70222,1933.44,-818.964)">
                    <path d="M816.217,1131.59C814.365,1131.6 812.514,1131.66 810.668,1131.78C807.18,1132.02 803.716,1132.47 800.321,1133.13C795.994,1133.98 791.78,1135.16 787.757,1136.65C784.403,1137.89 781.182,1139.34 778.126,1140.97C775.573,1142.34 773.136,1143.83 770.827,1145.43C768.942,1146.74 767.143,1148.13 765.433,1149.57C763.963,1150.81 762.558,1152.1 761.222,1153.43C760.117,1154.53 759.058,1155.65 758.046,1156.8C757.209,1157.75 756.404,1158.72 755.63,1159.7C750.162,1166.63 746.274,1174.25 743.688,1182.1C741.893,1187.55 740.719,1193.11 740.053,1198.71C739.938,1199.67 739.839,1200.64 739.754,1201.6C739.73,1201.87 739.708,1202.13 739.686,1202.4C739.662,1202.7 739.643,1202.92 739.644,1203.25C739.645,1203.45 739.655,1203.65 739.672,1203.85C739.759,1204.83 740.054,1205.81 740.541,1206.73C741.028,1207.65 741.707,1208.5 742.545,1209.26C743.382,1210.01 744.377,1210.66 745.479,1211.17C746.582,1211.68 747.791,1212.05 749.046,1212.27C750.301,1212.49 751.601,1212.55 752.881,1212.45C754.161,1212.35 755.42,1212.09 756.594,1211.68C757.534,1211.36 758.419,1210.94 759.221,1210.45C760.224,1209.83 761.095,1209.08 761.793,1208.25C762.491,1207.41 763.014,1206.5 763.336,1205.54C763.464,1205.15 763.561,1204.76 763.625,1204.37C763.681,1204.02 763.69,1203.84 763.715,1203.54C763.733,1203.31 763.752,1203.09 763.772,1202.86C763.806,1202.48 763.841,1202.11 763.879,1201.74C764.007,1200.49 764.161,1199.25 764.348,1198.02C765.026,1193.51 766.112,1189.03 767.716,1184.67C769.156,1180.75 771.014,1176.92 773.379,1173.27C776.537,1168.41 780.62,1163.87 785.721,1160.1C786.477,1159.54 787.255,1158.99 788.054,1158.47C789.032,1157.83 790.043,1157.22 791.083,1156.64C792.297,1155.96 793.552,1155.33 794.845,1154.74C796.439,1154.02 798.089,1153.37 799.786,1152.81C801.825,1152.13 803.932,1151.57 806.083,1151.15C808.731,1150.63 811.444,1150.3 814.173,1150.19C817.496,1150.05 820.839,1150.23 824.108,1150.71C828.095,1151.29 831.963,1152.33 835.581,1153.74C840.218,1155.55 844.427,1157.98 848.089,1160.82C849.173,1161.65 850.209,1162.53 851.198,1163.44C851.843,1164.03 852.467,1164.63 853.071,1165.25C857.63,1169.9 861.013,1175.19 863.414,1180.7C863.82,1181.63 864.198,1182.57 864.55,1183.52C864.958,1184.61 865.331,1185.72 865.67,1186.83C866.118,1188.29 866.507,1189.77 866.842,1191.26C867.255,1193.08 867.586,1194.92 867.841,1196.77C868.143,1198.95 868.336,1201.13 868.444,1203.32L868.454,1203.55C868.472,1203.75 868.481,1203.94 868.507,1204.14C868.558,1204.54 868.642,1204.93 868.758,1205.31C869.166,1206.67 869.971,1207.94 871.1,1209.03C871.744,1209.64 872.492,1210.2 873.319,1210.67C874.56,1211.38 875.977,1211.9 877.472,1212.2C878.967,1212.5 880.535,1212.57 882.066,1212.41C883.341,1212.28 884.588,1211.99 885.745,1211.56C886.902,1211.13 887.967,1210.55 888.888,1209.86C889.994,1209.03 890.888,1208.03 891.508,1206.94C892.024,1206.03 892.35,1205.06 892.469,1204.07C892.493,1203.88 892.508,1203.68 892.516,1203.48C892.528,1203.15 892.516,1202.94 892.501,1202.64C892.489,1202.38 892.476,1202.12 892.461,1201.86C892.408,1200.92 892.341,1199.99 892.259,1199.05C891.765,1193.43 890.728,1187.83 889.034,1182.35C887.18,1176.35 884.535,1170.49 880.977,1164.96C878.815,1161.6 876.316,1158.36 873.474,1155.31C870.308,1151.92 866.717,1148.76 862.727,1145.93C860.402,1144.28 857.943,1142.74 855.364,1141.33C852.285,1139.65 849.034,1138.15 845.645,1136.87C841.656,1135.37 837.477,1134.16 833.181,1133.28C829.803,1132.59 826.353,1132.11 822.876,1131.84C821.032,1131.7 819.183,1131.62 817.33,1131.6C816.959,1131.59 816.588,1131.59 816.217,1131.59Z" style="fill:rgb(36,59,87);fill-rule:nonzero;"/>
                </g>
                <g transform="matrix(1.31194,0,0,1.70222,114.56,-818.964)">
                    <path d="M816.667,1131.59C818.593,1131.6 820.517,1131.67 822.435,1131.81C825.913,1132.06 829.366,1132.52 832.749,1133.19C837.123,1134.06 841.381,1135.28 845.442,1136.8C848.834,1138.07 852.088,1139.55 855.172,1141.23C857.755,1142.63 860.218,1144.16 862.548,1145.8C866.61,1148.66 870.261,1151.87 873.474,1155.31C876.263,1158.3 878.722,1161.48 880.857,1164.77C884.475,1170.35 887.16,1176.28 889.035,1182.35C890.727,1187.83 891.764,1193.43 892.259,1199.05C892.341,1199.99 892.408,1200.92 892.461,1201.86C892.476,1202.12 892.489,1202.38 892.501,1202.63C892.516,1202.93 892.528,1203.15 892.516,1203.48C892.508,1203.68 892.493,1203.88 892.469,1204.07C892.35,1205.06 892.024,1206.03 891.508,1206.94C890.991,1207.85 890.285,1208.69 889.423,1209.43C888.562,1210.16 887.547,1210.79 886.428,1211.28C885.309,1211.77 884.089,1212.12 882.827,1212.32C881.565,1212.51 880.264,1212.55 878.987,1212.42C877.711,1212.3 876.461,1212.02 875.3,1211.59C874.139,1211.16 873.068,1210.59 872.141,1209.9C871.399,1209.35 870.749,1208.73 870.213,1208.05C869.542,1207.21 869.049,1206.28 868.758,1205.31C868.642,1204.93 868.558,1204.54 868.507,1204.14C868.461,1203.79 868.458,1203.62 868.444,1203.32C868.43,1203.03 868.414,1202.74 868.397,1202.45C868.376,1202.09 868.352,1201.73 868.326,1201.37C868.171,1199.29 867.934,1197.22 867.598,1195.15C867.314,1193.41 866.96,1191.67 866.53,1189.94C866.167,1188.48 865.751,1187.03 865.276,1185.59C864.88,1184.39 864.443,1183.19 863.963,1182.01C861.501,1175.93 857.884,1170.09 852.853,1165.03C852.176,1164.35 851.474,1163.68 850.747,1163.03C849.895,1162.27 849.01,1161.53 848.09,1160.82C846.521,1159.6 844.855,1158.46 843.094,1157.41C840.745,1156.01 838.231,1154.77 835.581,1153.74C832.004,1152.34 828.183,1151.32 824.245,1150.73C821.071,1150.25 817.824,1150.07 814.593,1150.17C811.913,1150.26 809.246,1150.56 806.638,1151.04C804.533,1151.43 802.467,1151.95 800.464,1152.59C797.383,1153.57 794.453,1154.81 791.724,1156.29C789.042,1157.73 786.554,1159.39 784.282,1161.2C780.692,1164.07 777.641,1167.32 775.098,1170.79C772.052,1174.94 769.726,1179.39 767.982,1183.96C766.072,1188.96 764.855,1194.12 764.164,1199.31C763.966,1200.8 763.813,1202.29 763.696,1203.78L763.625,1204.37C763.585,1204.56 763.553,1204.76 763.505,1204.96C763.408,1205.35 763.279,1205.73 763.119,1206.11C762.557,1207.43 761.608,1208.64 760.359,1209.64C759.467,1210.36 758.427,1210.96 757.288,1211.42C756.15,1211.89 754.915,1212.21 753.646,1212.37C752.377,1212.53 751.075,1212.53 749.804,1212.38C748.533,1212.23 747.296,1211.91 746.153,1211.46C745.01,1211 743.964,1210.4 743.065,1209.69C741.987,1208.84 741.126,1207.83 740.541,1206.73C740.054,1205.81 739.759,1204.83 739.672,1203.85C739.655,1203.65 739.645,1203.45 739.644,1203.25C739.643,1202.92 739.662,1202.7 739.686,1202.4C739.708,1202.13 739.73,1201.87 739.754,1201.6C739.839,1200.64 739.938,1199.67 740.053,1198.71C740.719,1193.11 741.893,1187.55 743.688,1182.1C746.23,1174.38 750.031,1166.88 755.355,1160.05C756.124,1159.06 756.923,1158.09 757.755,1157.13C758.808,1155.92 759.911,1154.74 761.064,1153.59C762.347,1152.3 763.693,1151.06 765.1,1149.85C766.801,1148.4 768.591,1147.01 770.467,1145.69C772.765,1144.07 775.193,1142.56 777.737,1141.18C780.783,1139.53 783.997,1138.06 787.345,1136.8C791.291,1135.32 795.423,1134.13 799.669,1133.26C803.127,1132.56 806.659,1132.07 810.22,1131.81C811.992,1131.68 813.77,1131.61 815.55,1131.59C815.922,1131.59 816.294,1131.59 816.667,1131.59Z" style="fill:rgb(36,59,87);fill-rule:nonzero;"/>
                </g>
            </g>
        </g>
        <g id="Folders" transform="matrix(1,0,0,1,-2.93631,-351.64)">
            <g id="Folder" transform="matrix(1.22216,0.465273,-0.465273,1.22216,43.8982,-1077.29)">
                <g transform="matrix(0.883545,0,0,1.13653,172.081,-115.375)">
                    <path d="M1926.78,897.782C1926.78,877.76 1905.87,861.505 1880.11,861.505L1786.78,861.505C1761.03,861.505 1740.12,877.76 1740.12,897.782L1740.12,1011.88C1740.12,1031.91 1761.03,1048.16 1786.78,1048.16L1880.11,1048.16C1905.87,1048.16 1926.78,1031.91 1926.78,1011.88L1926.78,897.782Z" style="fill:rgb(218,151,47);"/>
                </g>
                <g transform="matrix(1.14858,0,0,0.871498,-289.112,162.424)">
                    <path d="M1926.78,908.169C1926.78,882.414 1910.91,861.505 1891.37,861.505L1775.53,861.505C1755.99,861.505 1740.12,882.414 1740.12,908.169L1740.12,1001.5C1740.12,1027.25 1755.99,1048.16 1775.53,1048.16L1891.37,1048.16C1910.91,1048.16 1926.78,1027.25 1926.78,1001.5L1926.78,908.169Z" style="fill:rgb(255,187,78);"/>
                </g>
            </g>
            <g id="Folder1" transform="matrix(1.27013,-0.333327,0.333327,1.27013,-2398.77,310.383)">
                <g transform="matrix(0.883545,0,0,1.13653,172.081,-115.375)">
                    <path d="M1926.78,897.782C1926.78,877.76 1905.87,861.505 1880.11,861.505L1786.78,861.505C1761.03,861.505 1740.12,877.76 1740.12,897.782L1740.12,1011.88C1740.12,1031.91 1761.03,1048.16 1786.78,1048.16L1880.11,1048.16C1905.87,1048.16 1926.78,1031.91 1926.78,1011.88L1926.78,897.782Z" style="fill:rgb(218,151,47);"/>
                </g>
                <g transform="matrix(1.14858,0,0,0.871498,-289.112,162.424)">
                    <path d="M1926.78,908.169C1926.78,882.414 1910.91,861.505 1891.37,861.505L1775.53,861.505C1755.99,861.505 1740.12,882.414 1740.12,908.169L1740.12,1001.5C1740.12,1027.25 1755.99,1048.16 1775.53,1048.16L1891.37,1048.16C1910.91,1048.16 1926.78,1027.25 1926.78,1001.5L1926.78,908.169Z" style="fill:rgb(255,187,78);"/>
                </g>
            </g>
            <g id="Folder2" transform="matrix(0.724986,0.114927,-0.114927,0.724986,-731.392,-114.578)">
                <g transform="matrix(0.883545,0,0,1.13653,172.081,-115.375)">
                    <path d="M1926.78,897.782C1926.78,877.76 1905.87,861.505 1880.11,861.505L1786.78,861.505C1761.03,861.505 1740.12,877.76 1740.12,897.782L1740.12,1011.88C1740.12,1031.91 1761.03,1048.16 1786.78,1048.16L1880.11,1048.16C1905.87,1048.16 1926.78,1031.91 1926.78,1011.88L1926.78,897.782Z" style="fill:rgb(218,151,47);"/>
                </g>
                <g transform="matrix(1.14858,0,0,0.871498,-289.112,162.424)">
                    <path d="M1926.78,908.169C1926.78,882.414 1910.91,861.505 1891.37,861.505L1775.53,861.505C1755.99,861.505 1740.12,882.414 1740.12,908.169L1740.12,1001.5C1740.12,1027.25 1755.99,1048.16 1775.53,1048.16L1891.37,1048.16C1910.91,1048.16 1926.78,1027.25 1926.78,1001.5L1926.78,908.169Z" style="fill:rgb(255,187,78);"/>
                </g>
            </g>
            <g id="Folder3" transform="matrix(0.669499,-0.116076,0.116076,0.669499,271.114,353.124)">
                <g transform="matrix(0.883545,0,0,1.13653,172.081,-115.375)">
                    <path d="M1926.78,897.782C1926.78,877.76 1905.87,861.505 1880.11,861.505L1786.78,861.505C1761.03,861.505 1740.12,877.76 1740.12,897.782L1740.12,1011.88C1740.12,1031.91 1761.03,1048.16 1786.78,1048.16L1880.11,1048.16C1905.87,1048.16 1926.78,1031.91 1926.78,1011.88L1926.78,897.782Z" style="fill:rgb(218,151,47);"/>
                </g>
                <g transform="matrix(1.14858,0,0,0.871498,-289.112,162.424)">
                    <path d="M1926.78,908.169C1926.78,882.414 1910.91,861.505 1891.37,861.505L1775.53,861.505C1755.99,861.505 1740.12,882.414 1740.12,908.169L1740.12,1001.5C1740.12,1027.25 1755.99,1048.16 1775.53,1048.16L1891.37,1048.16C1910.91,1048.16 1926.78,1027.25 1926.78,1001.5L1926.78,908.169Z" style="fill:rgb(255,187,78);"/>
                </g>
            </g>
        </g>
        <g id="Proji-Letters" transform="matrix(1,0,0,1,-43.1469,-31.3154)">
            <g transform="matrix(0.977901,0,0,1.07556,31.1732,-115.464)">
                <ellipse cx="1492.56" cy="1482.63" rx="81.974" ry="81.521" style="fill:rgb(40,66,98);"/>
            </g>
            <g transform="matrix(0.977901,0,0,1.07556,227.73,-116.37)">
                <ellipse cx="1492.56" cy="1482.63" rx="81.974" ry="81.521" style="fill:rgb(40,66,98);"/>
            </g>
            <g transform="matrix(0.78453,0,0,1.84778,515.894,-985.476)">
                <path d="M1492.56,1401.11C1537.8,1401.11 1573.12,1409.68 1574.54,1482.63C1575.86,1551.14 1537.8,1564.15 1492.56,1564.15C1447.32,1564.15 1409.9,1554.58 1410.59,1482.63C1411.31,1407.24 1447.32,1401.11 1492.56,1401.11Z" style="fill:rgb(40,66,98);"/>
            </g>
            <path d="M1493.92,1618.5C1457.81,1616.95 1415.38,1641.08 1431.42,1868.5C1433.67,1900.37 1413.59,1908.08 1399.72,1912.88C1370.32,1923.05 1337.9,1942.57 1339.03,1968.13C1340.34,1997.96 1369.89,2018.6 1405.15,2019.77C1494.73,2022.73 1552.58,1985.52 1555.51,1900.2C1557.86,1831.99 1560.56,1746.21 1557.33,1695.49C1554.17,1646.05 1530.92,1620.09 1493.92,1618.5Z" style="fill:rgb(40,66,98);"/>
            <path d="M1226.94,1569.29C1323.93,1569.29 1402.67,1645.11 1402.67,1738.49C1402.67,1831.88 1323.93,1907.69 1226.94,1907.69C1129.96,1907.69 1051.22,1831.88 1051.22,1738.49C1051.22,1645.11 1129.96,1569.29 1226.94,1569.29ZM1229.84,1707.69C1257.24,1707.69 1279.48,1729.12 1279.48,1755.52C1279.48,1781.92 1257.24,1803.35 1229.84,1803.35C1202.44,1803.35 1180.2,1781.92 1180.2,1755.52C1180.2,1729.12 1202.44,1707.69 1229.84,1707.69Z" style="fill:rgb(40,66,98);"/>
            <path d="M809.365,1572.93C736.747,1579.66 746.411,1637.81 743.788,1737.45C744.436,1871.72 763.623,1902.75 816.901,1902.2C875.525,1901.59 880.298,1847.83 877.677,1761.12C876.787,1731.67 910.66,1700.25 941.538,1700.46C978.717,1700.72 981.657,1721.64 1011.85,1715.95C1023.02,1713.85 1052.29,1688.08 1050.52,1661.62C1046.63,1603.21 1010.31,1577.01 958.349,1577.56C917.601,1578 884.07,1585.63 865.017,1607.71C853.991,1585.41 836.787,1570.38 809.365,1572.93Z" style="fill:rgb(40,66,98);"/>
            <path d="M406.17,1904.02C467.285,1904.23 472.041,1868.93 469.896,1808.1C508.843,1820.91 520.959,1820.51 541.241,1821.12C635.212,1823.95 726.461,1748.65 727.327,1639.09C728.43,1499.77 666.127,1422.88 523.27,1421.7C416.71,1420.83 317.232,1476.23 311.677,1662.28C306.248,1844.13 347.242,1903.81 406.17,1904.02ZM529.327,1588.08C565.641,1588.08 595.124,1615.36 595.124,1648.95C595.124,1682.55 565.641,1709.82 529.327,1709.82C493.013,1709.82 463.53,1682.55 463.53,1648.95C463.53,1615.36 493.013,1588.08 529.327,1588.08Z" style="fill:rgb(40,66,98);"/>
        </g>
    </g>
</svg>
